<?xml version="1.0" encoding="utf-8"?>
<!-- Generator: Adobe Illustrator 14.0.0, SVG Export Plug-In . SVG Version: 6.00 Build 43363)  -->
<!DOCTYPE svg PUBLIC "-//W3C//DTD SVG 1.1//EN" "http://www.w3.org/Graphics/SVG/1.1/DTD/svg11.dtd">
<svg version="1.1" xmlns="http://www.w3.org/2000/svg" xmlns:xlink="http://www.w3.org/1999/xlink" x="0px" y="0px" width="2272px"
	 height="1872px" viewBox="0 0 2272 1872" enable-background="new 0 0 2272 1872" xml:space="preserve">
<g id="back">
	<linearGradient id="SVGID_1_" gradientUnits="userSpaceOnUse" x1="1137" y1="1873.2012" x2="1136.9999" y2="0.2012">
		<stop  offset="0.5513" style="stop-color:#F0FDCF"/>
		<stop  offset="0.7744" style="stop-color:#8ED3FF"/>
	</linearGradient>
	<rect x="1" y="0.201" fill="url(#SVGID_1_)" width="2272" height="1873"/>
</g>
<g id="Mountains_Area">
	<g id="clouds">
		<polygon fill="#FFFFFF" points="1460.732,627 2025.915,627 1858.592,607.169 1858.592,584.859 1817.69,599.113 1796.619,572.465 
			1743.324,588.578 1724.732,563.789 1588.395,539 1538.816,567.507 1486.761,567.507 1483.042,592.296 1438.423,593.535 
			1438.423,607.169 1312,627 		"/>
		<polygon fill="#FFFFFF" points="123.934,109.63 433.896,109.63 342.131,98.754 342.131,86.519 319.7,94.335 308.144,79.721 
			278.915,88.558 268.719,74.963 193.947,61.368 166.758,77.002 138.208,77.002 136.169,90.597 111.699,91.277 111.699,98.754 
			42.365,109.63 		"/>
		<polygon fill="#FFFFFF" points="507.855,435 1128.145,435 944.087,404.565 918,363.261 881.043,363.261 818,311.087 694.087,285 
			639.739,330.652 587.565,330.652 574.521,391.521 523.797,391.521 507.855,413.261 411.479,408.913 411.479,424.13 268,435 		"/>
		<polygon fill="#FFFFFF" points="1928.256,171 1523,171 1643.251,151.116 1660.295,124.13 1684.439,124.13 1725.628,90.043 
			1806.584,73 1842.092,102.826 1876.179,102.826 1884.7,142.594 1917.841,142.594 1928.256,156.797 1991.222,153.957 
			1991.222,163.899 2084.961,171 		"/>
		<polygon fill="#FFFFFF" points="166,909 634.14,909 541.407,891.093 530.535,875.744 497.279,875.744 470.418,846.326 
			429.488,865.512 383.442,813.07 265.768,799 228.674,861.674 207.57,854 207.57,875.744 166,878.302 155.768,896.209 56,909 		"/>
	</g>
	<g id="mountains">
		<g>
			<path fill="#47A4CD" d="M2273,744.026C2088.619,628.656,1920.918,513,1920.918,513C1842.146,569.89,805,1226.312,805,1226.312
				l1468,79.124V744.026z"/>
			<polygon fill="#D0EFF2" points="1921,513 2021,629 1995,629 2045,688 2237,741 2149,741 2273,960.5 2273,737 			"/>
		</g>
		<g>
			<path fill="#48A5CE" d="M405,1310c0,0,624-576,660-632l1208,627l-1,233L405,1310z"/>
			<polygon fill="#D0EFF2" points="1244,804 1165,812 1210,837 1336,882 1277,882 1385,936 1435,1012 2273,1305 1065,678 1129,795 
							"/>
		</g>
		<g>
			<path fill="#54B3D1" d="M-1,1385l1583-56c0,0-525-180-543-186S487,825,487,825s-33,27-72,72
				c-24.562,28.341-251.405,192.328-416,309.865V1385z"/>
			<path fill="#D0EFF2" d="M547,887l-23,12l23,38l112,29h-49l181,104l409.717,128.321l0,0
				C1114.1,1168.649,1045.318,1145.106,1039,1143c-18-6-552-318-552-318l34,54L547,887z"/>
		</g>
	</g>
	<g id="pine_trees_1_">
		<g>
			<polygon fill="#1D7B31" points="524.016,1273.993 510.768,1231.591 517.637,1231.262 502.105,1191.912 507.866,1191.912 
				497.065,1166.831 502.105,1166.831 490.339,1147.172 495.262,1147.172 483,1122.649 470.738,1147.172 475.851,1147.172 
				463.944,1167.591 469.345,1167.591 456.384,1193.052 462.504,1193.052 448.824,1230.672 455.664,1230.672 441.984,1273.993 			
				"/>
			<polygon fill="#175D27" points="517.637,1231.262 502.105,1191.912 507.866,1191.912 497.065,1166.831 502.105,1166.831 
				490.339,1147.172 495.262,1147.172 486.549,1129.747 486.549,1129.747 488.859,1142.047 481.02,1147.063 487.675,1147.063 
				498.092,1163.559 477.258,1167.609 490.858,1167.609 500.118,1186.997 472.338,1191.916 496.067,1191.916 505.037,1222.879 
				473.785,1230.113 502.722,1230.113 513.14,1264.838 488.833,1273.993 524.016,1273.993 510.768,1231.591 			"/>
		</g>
		<g>
			<polygon fill="#1D7B31" points="600.266,1289.403 587.018,1247.001 593.887,1246.672 578.355,1207.322 584.116,1207.322 
				573.315,1182.241 578.355,1182.241 566.589,1162.582 571.512,1162.582 559.25,1138.06 546.988,1162.582 552.101,1162.582 
				540.194,1183.002 545.595,1183.002 532.634,1208.462 538.754,1208.462 525.074,1246.083 531.914,1246.083 518.234,1289.403 			
				"/>
			<polygon fill="#175D27" points="593.887,1246.672 578.355,1207.322 584.116,1207.322 573.315,1182.241 578.355,1182.241 
				566.589,1162.582 571.512,1162.582 562.799,1145.157 562.799,1145.157 565.109,1157.457 557.27,1162.475 563.925,1162.475 
				574.342,1178.969 553.508,1183.02 567.108,1183.02 576.368,1202.407 548.588,1207.326 572.317,1207.326 581.287,1238.289 
				550.035,1245.523 578.973,1245.523 589.39,1280.248 565.083,1289.403 600.266,1289.403 587.018,1247.001 			"/>
		</g>
	</g>
	<g id="back_meadow">
		<path fill="#CEB939" d="M1,1304.698v-65.122c0,0,48.39-150.214,344-41.576l380,161L1,1304.698z"/>
		<path fill="#749417" d="M2272,1421.698v-81.876c0,0-308.54-191.224-759.584-54.636l-176.495,43.506L2272,1421.698z"/>
		<path fill="#89A058" d="M1,1383.698v-65.122c0,0,277.077-152.092,682.126-43.454L1093,1362.463L1,1383.698z"/>
	</g>
	<g id="pine_trees">
		<g>
			<polygon fill="#1D7B31" points="331.044,1352.514 310.645,1287.227 321.221,1286.719 297.308,1226.132 306.177,1226.132 
				289.547,1187.515 297.308,1187.515 279.19,1157.245 286.77,1157.245 267.891,1119.487 249.011,1157.245 256.882,1157.245 
				238.55,1188.686 246.865,1188.686 226.91,1227.887 236.333,1227.887 215.269,1285.812 225.801,1285.812 204.737,1352.514 			"/>
			<polygon fill="#175D27" points="321.221,1286.719 297.308,1226.132 306.177,1226.132 289.547,1187.515 297.308,1187.515 
				279.19,1157.245 286.77,1157.245 273.354,1130.416 273.354,1130.416 276.912,1149.354 264.841,1157.079 275.089,1157.079 
				291.128,1182.475 259.049,1188.713 279.99,1188.713 294.248,1218.564 251.475,1226.139 288.01,1226.139 301.822,1273.813 
				253.703,1284.951 298.257,1284.951 314.297,1338.417 276.871,1352.514 331.044,1352.514 310.645,1287.227 			"/>
		</g>
		<g>
			<polygon fill="#1D7B31" points="404.016,1357.978 390.768,1315.575 397.637,1315.246 382.105,1275.896 387.866,1275.896 
				377.065,1250.815 382.105,1250.815 370.339,1231.156 375.261,1231.156 363,1206.634 350.738,1231.156 355.851,1231.156 
				343.944,1251.576 349.345,1251.576 336.384,1277.036 342.504,1277.036 328.824,1314.657 335.664,1314.657 321.984,1357.978 			
				"/>
			<polygon fill="#175D27" points="397.637,1315.246 382.105,1275.896 387.866,1275.896 377.065,1250.815 382.105,1250.815 
				370.339,1231.156 375.261,1231.156 366.549,1213.731 366.549,1213.731 368.859,1226.031 361.02,1231.049 367.675,1231.049 
				378.092,1247.543 357.258,1251.594 370.858,1251.594 380.118,1270.981 352.338,1275.9 376.067,1275.9 385.037,1306.863 
				353.785,1314.098 382.722,1314.098 393.14,1348.822 368.833,1357.978 404.016,1357.978 390.768,1315.575 			"/>
		</g>
		<g>
			<polygon fill="#1D7B31" points="2035.511,1387.992 2017.885,1331.579 2027.023,1331.141 2006.36,1278.788 2014.023,1278.788 
				1999.654,1245.42 2006.36,1245.42 1990.705,1219.265 1997.255,1219.265 1980.941,1186.639 1964.628,1219.265 1971.43,1219.265 
				1955.589,1246.432 1962.773,1246.432 1945.531,1280.305 1953.673,1280.305 1935.473,1330.356 1944.573,1330.356 
				1926.372,1387.992 			"/>
			<polygon fill="#175D27" points="2027.023,1331.141 2006.36,1278.788 2014.023,1278.788 1999.654,1245.42 2006.36,1245.42 
				1990.705,1219.265 1997.255,1219.265 1985.663,1196.082 1985.663,1196.082 1988.737,1212.446 1978.307,1219.121 
				1987.161,1219.121 2001.021,1241.065 1973.302,1246.455 1991.396,1246.455 2003.716,1272.25 1966.757,1278.795 
				1998.326,1278.795 2010.261,1319.988 1968.682,1329.613 2007.181,1329.613 2021.04,1375.812 1988.701,1387.992 
				2035.511,1387.992 2017.885,1331.579 			"/>
		</g>
		<g>
			<polygon fill="#1D7B31" points="2151.569,1433.852 2133.943,1377.438 2143.082,1377 2122.419,1324.647 2130.082,1324.647 
				2115.713,1291.279 2122.419,1291.279 2106.764,1265.124 2113.313,1265.124 2097,1232.498 2080.687,1265.124 2087.488,1265.124 
				2071.647,1292.291 2078.832,1292.291 2061.59,1326.164 2069.732,1326.164 2051.531,1376.216 2060.631,1376.216 
				2042.431,1433.852 			"/>
			<polygon fill="#175D27" points="2143.082,1377 2122.419,1324.647 2130.082,1324.647 2115.713,1291.279 2122.419,1291.279 
				2106.764,1265.124 2113.313,1265.124 2101.722,1241.941 2101.722,1241.941 2104.796,1258.305 2094.365,1264.98 2103.22,1264.98 
				2117.08,1286.925 2089.36,1292.314 2107.455,1292.314 2119.774,1318.108 2082.815,1324.653 2114.385,1324.653 2126.319,1365.848 
				2084.74,1375.472 2123.239,1375.472 2137.1,1421.671 2104.76,1433.852 2151.569,1433.852 2133.943,1377.438 			"/>
		</g>
	</g>
	<path id="meadow" fill="#9BAE16" d="M-1,1716.522v-369.949c0,0,1034.455-122.068,2273,52.133v299.13L-1,1716.522z"/>
	<g id="house">
		<polygon fill="#B7B7B7" points="378,1476.758 571,1476.758 616,1411.758 430.691,1400.762 		"/>
		<rect x="483" y="1476.758" fill="#E06E54" width="180" height="110"/>
		<polygon fill="#7E201E" points="483,1586.758 393,1586.758 393,1476.758 438,1411.758 483,1476.758 		"/>
		<polygon fill="#DBDBDB" points="676,1476.758 483,1476.758 430.691,1400.762 623.691,1400.762 		"/>
		<polygon fill="#B7B7B7" points="426.174,1407.275 426.174,1407.275 474,1476.758 483,1476.758 430.691,1400.762 		"/>
		<g>
			<rect x="510.75" y="1493.258" fill="#7E201E" width="30" height="30"/>
			<rect x="559.25" y="1493.258" fill="#7E201E" width="30" height="30"/>
			<rect x="605.25" y="1493.258" fill="#7E201E" width="30" height="30"/>
		</g>
		<rect x="483" y="1476.758" fill="#7E201E" width="180" height="21"/>
		<rect x="483" y="1581.758" fill="#7E201E" width="180" height="5"/>
	</g>
	<g id="pine_trees_2_">
		<g>
			<polygon fill="#1D7B31" points="1669.665,1474.056 1641.348,1383.429 1656.03,1382.725 1622.835,1298.621 1635.146,1298.621 
				1612.063,1245.017 1622.835,1245.017 1597.686,1202.998 1608.207,1202.998 1582,1150.585 1555.793,1202.998 1566.719,1202.998 
				1541.272,1246.641 1552.814,1246.641 1525.113,1301.058 1538.194,1301.058 1508.955,1381.465 1523.574,1381.465 
				1494.335,1474.056 			"/>
			<polygon fill="#175D27" points="1656.03,1382.725 1622.835,1298.621 1635.146,1298.621 1612.063,1245.017 1622.835,1245.017 
				1597.686,1202.998 1608.207,1202.998 1589.585,1165.755 1589.585,1165.755 1594.523,1192.044 1577.768,1202.768 
				1591.992,1202.768 1614.258,1238.021 1569.727,1246.68 1598.795,1246.68 1618.587,1288.117 1559.213,1298.631 1609.928,1298.631 
				1629.101,1364.809 1562.306,1380.271 1624.153,1380.271 1646.418,1454.488 1594.466,1474.056 1669.665,1474.056 
				1641.348,1383.429 			"/>
		</g>
		<g>
			<polygon fill="#1D7B31" points="1760.267,1475.513 1739.867,1410.226 1750.443,1409.719 1726.53,1349.131 1735.399,1349.131 
				1718.77,1310.515 1726.53,1310.515 1708.413,1280.245 1715.992,1280.245 1697.113,1242.487 1678.234,1280.245 1686.105,1280.245 
				1667.773,1311.685 1676.088,1311.685 1656.133,1350.887 1665.556,1350.887 1644.492,1408.812 1655.023,1408.812 
				1633.96,1475.513 			"/>
			<polygon fill="#175D27" points="1750.443,1409.719 1726.53,1349.131 1735.399,1349.131 1718.77,1310.515 1726.53,1310.515 
				1708.413,1280.245 1715.992,1280.245 1702.577,1253.415 1702.577,1253.415 1706.135,1272.354 1694.063,1280.078 
				1704.312,1280.078 1720.352,1305.475 1688.271,1311.713 1709.213,1311.713 1723.47,1341.564 1680.697,1349.139 
				1717.232,1349.139 1731.044,1396.813 1682.925,1407.951 1727.48,1407.951 1743.52,1461.416 1706.094,1475.513 1760.267,1475.513 
				1739.867,1410.226 			"/>
		</g>
		<g>
			<polygon fill="#1D7B31" points="1523,1493.258 1502.601,1427.971 1513.178,1427.463 1489.264,1366.876 1498.133,1366.876 
				1481.504,1328.259 1489.264,1328.259 1471.146,1297.989 1478.726,1297.989 1459.847,1260.231 1440.968,1297.989 
				1448.839,1297.989 1430.507,1329.429 1438.821,1329.429 1418.866,1368.631 1428.289,1368.631 1407.226,1426.556 
				1417.758,1426.556 1396.693,1493.258 			"/>
			<polygon fill="#175D27" points="1513.178,1427.463 1489.264,1366.876 1498.133,1366.876 1481.504,1328.259 1489.264,1328.259 
				1471.146,1297.989 1478.726,1297.989 1465.311,1271.16 1465.311,1271.16 1468.868,1290.098 1456.798,1297.823 1467.045,1297.823 
				1483.085,1323.219 1451.005,1329.457 1471.946,1329.457 1486.203,1359.309 1443.431,1366.883 1479.966,1366.883 
				1493.777,1414.557 1445.659,1425.695 1490.214,1425.695 1506.253,1479.161 1468.827,1493.258 1523,1493.258 1502.601,1427.971 
							"/>
		</g>
		<g>
			<polygon fill="#1D7B31" points="810.821,1555.272 790.421,1489.985 800.998,1489.478 777.084,1428.891 785.954,1428.891 
				769.324,1390.273 777.084,1390.273 758.967,1360.005 766.547,1360.005 747.667,1322.246 728.788,1360.005 736.659,1360.005 
				718.327,1391.444 726.642,1391.444 706.687,1430.646 716.11,1430.646 695.046,1488.571 705.578,1488.571 684.514,1555.272 			"/>
			<polygon fill="#175D27" points="800.998,1489.478 777.084,1428.891 785.954,1428.891 769.324,1390.273 777.084,1390.273 
				758.967,1360.005 766.547,1360.005 753.132,1333.175 753.132,1333.175 756.689,1352.113 744.618,1359.838 754.866,1359.838 
				770.906,1385.234 738.826,1391.472 759.767,1391.472 774.024,1421.323 731.252,1428.897 767.787,1428.897 781.599,1476.571 
				733.479,1487.71 778.034,1487.71 794.074,1541.176 756.648,1555.272 810.821,1555.272 790.421,1489.985 			"/>
		</g>
	</g>
	<path id="front_meadow" fill="#759C29" d="M0,1873l-1-246.979c0,0,1158.51-198.978,2273-198.978V1873H0z"/>
	<g id="pathway">
		<path fill="#BC8528" d="M2272,1508.258c0,0-2059.684,169.368-2273,304.016L0,1873l322.731-1c0,0,1720.312-211.888,1949.268-230.5
			V1508.258z"/>
		<path fill="#A57228" d="M2273,1565.217c0,0-1768.772,200.357-1951.016,253.854c-182.244,53.497-182.244,53.497-182.244,53.497
			L268.844,1872L2273,1565.217z"/>
	</g>
	<g id="pine_trees_4_">
		<g>
			<ellipse opacity="0.5" fill="#2D2D2D" cx="170.143" cy="1698.892" rx="46.498" ry="11.273"/>
			<g>
				<polygon fill="#302804" points="162.833,1658.582 158.384,1697.002 181.901,1697.002 176.181,1658.582 				"/>
				<path fill="#1F422E" d="M210.66,1630.288c-7.768,6.65-15.517,13.107-15.517,13.107l13.904-20.321l-11.442-51.172
					c-5.968,5.063-10.936,9.204-10.936,9.204l9.793-14.313l-12.955-57.937c-5.286,4.474-9.454,7.947-9.454,7.947l8.465-12.371
					l-11.422-51.082l-20.745,92.777c4.516,5.333,8.033,9.555,8.033,9.555l-8.82-6.035l-12.118,54.193
					c6.865,8.006,13.734,16.249,13.734,16.249l-15.063-10.307l-10.784,48.23l43.856,19.068l47.67-19.068L210.66,1630.288z"/>
				<path fill="#2B543C" d="M195.143,1643.396l13.904-20.321l-11.442-51.172c-5.968,5.063-10.936,9.204-10.936,9.204l9.793-14.313
					l-12.955-57.937c-5.286,4.474-9.454,7.947-9.454,7.947l8.465-12.371l-11.422-51.082l-2.119,83.899l9.746,46.61l-7.627,49.153
					l-5.085,30.509l-40.678-5.509l43.856,19.068l47.67-19.068l-6.2-27.726C202.892,1636.938,195.143,1643.396,195.143,1643.396z"/>
			</g>
		</g>
		<g>
			<ellipse opacity="0.5" fill="#2D2D2D" cx="267.89" cy="1648.892" rx="46.498" ry="11.273"/>
			<g>
				<polygon fill="#302804" points="260.581,1608.582 256.132,1647.002 279.649,1647.002 273.929,1608.582 				"/>
				<path fill="#1F422E" d="M308.408,1580.288c-7.769,6.65-15.517,13.107-15.517,13.107l13.904-20.321l-11.442-51.172
					c-5.968,5.063-10.937,9.204-10.937,9.204l9.794-14.313l-12.955-57.937c-5.286,4.474-9.454,7.947-9.454,7.947l8.465-12.371
					l-11.422-51.082l-20.745,92.777c4.516,5.333,8.033,9.555,8.033,9.555l-8.82-6.035l-12.118,54.193
					c6.865,8.006,13.734,16.249,13.734,16.249l-15.063-10.307l-10.785,48.23l43.856,19.068l47.67-19.068L308.408,1580.288z"/>
				<path fill="#2B543C" d="M292.891,1593.396l13.904-20.321l-11.442-51.172c-5.968,5.063-10.937,9.204-10.937,9.204l9.794-14.313
					l-12.955-57.937c-5.286,4.474-9.454,7.947-9.454,7.947l8.465-12.371l-11.422-51.082l-2.119,83.899l9.746,46.61l-7.627,49.153
					l-5.084,30.509l-40.679-5.509l43.856,19.068l47.67-19.068l-6.2-27.726C300.639,1586.938,292.891,1593.396,292.891,1593.396z"/>
			</g>
		</g>
	</g>
	<g id="pine_trees_3_">
		<g>
			<ellipse opacity="0.5" fill="#2D2D2D" cx="642.863" cy="1388.873" rx="22.613" ry="5.482"/>
			<g>
				<polygon fill="#302804" points="639.308,1369.27 637.145,1387.954 648.582,1387.954 645.799,1369.27 				"/>
				<path fill="#1F422E" d="M662.567,1355.51c-3.778,3.234-7.546,6.374-7.546,6.374l6.762-9.882l-5.565-24.887
					c-2.902,2.463-5.318,4.477-5.318,4.477l4.763-6.961l-6.3-28.177c-2.57,2.177-4.598,3.865-4.598,3.865l4.117-6.017l-5.555-24.842
					l-10.089,45.119c2.196,2.595,3.907,4.647,3.907,4.647l-4.29-2.936l-5.893,26.355c3.338,3.894,6.679,7.902,6.679,7.902
					l-7.326-5.012l-5.245,23.456l21.329,9.272l23.183-9.272L662.567,1355.51z"/>
				<path fill="#2B543C" d="M655.021,1361.884l6.762-9.882l-5.565-24.887c-2.902,2.463-5.318,4.477-5.318,4.477l4.763-6.961
					l-6.3-28.177c-2.57,2.177-4.598,3.865-4.598,3.865l4.117-6.017l-5.555-24.842l-1.03,40.802l4.74,22.668l-3.709,23.905
					l-2.473,14.837l-19.783-2.679l21.329,9.272l23.183-9.272l-3.015-13.484C658.79,1358.744,655.021,1361.884,655.021,1361.884z"/>
			</g>
		</g>
		<g>
			<ellipse opacity="0.5" fill="#2D2D2D" cx="1909.19" cy="1479.09" rx="33.701" ry="8.17"/>
			<g>
				<polygon fill="#302804" points="1903.893,1449.873 1900.668,1477.72 1917.713,1477.72 1913.566,1449.873 				"/>
				<path fill="#1F422E" d="M1938.557,1429.366c-5.631,4.82-11.246,9.5-11.246,9.5l10.077-14.729l-8.294-37.089
					c-4.325,3.67-7.926,6.671-7.926,6.671l7.098-10.375l-9.389-41.992c-3.832,3.243-6.853,5.761-6.853,5.761l6.136-8.967
					l-8.279-37.023l-15.036,67.244c3.273,3.866,5.823,6.925,5.823,6.925l-6.394-4.374l-8.782,39.279
					c4.976,5.803,9.954,11.777,9.954,11.777l-10.918-7.471l-7.816,34.958l31.787,13.82l34.551-13.82L1938.557,1429.366z"/>
				<path fill="#2B543C" d="M1927.311,1438.866l10.077-14.729l-8.294-37.089c-4.325,3.67-7.926,6.671-7.926,6.671l7.098-10.375
					l-9.389-41.992c-3.832,3.243-6.853,5.761-6.853,5.761l6.136-8.967l-8.279-37.023l-1.535,60.81l7.063,33.783l-5.528,35.626
					l-3.686,22.112l-29.483-3.992l31.787,13.82l34.551-13.82l-4.493-20.096C1932.926,1434.187,1927.311,1438.866,1927.311,1438.866z
					"/>
			</g>
		</g>
		<g>
			<ellipse opacity="0.5" fill="#2D2D2D" cx="2170.662" cy="1472.891" rx="33.701" ry="8.17"/>
			<g>
				<polygon fill="#302804" points="2165.364,1443.674 2162.14,1471.521 2179.186,1471.521 2175.039,1443.674 				"/>
				<path fill="#1F422E" d="M2200.029,1423.167c-5.631,4.82-11.247,9.5-11.247,9.5l10.077-14.729l-8.293-37.089
					c-4.325,3.67-7.926,6.671-7.926,6.671l7.098-10.375l-9.389-41.991c-3.832,3.242-6.853,5.76-6.853,5.76l6.135-8.967
					l-8.278-37.023l-15.036,67.244c3.272,3.866,5.822,6.925,5.822,6.925l-6.393-4.374l-8.783,39.279
					c4.976,5.803,9.955,11.777,9.955,11.777l-10.918-7.47l-7.816,34.957l31.787,13.82l34.551-13.82L2200.029,1423.167z"/>
				<path fill="#2B543C" d="M2188.782,1432.667l10.077-14.729l-8.293-37.089c-4.325,3.67-7.926,6.671-7.926,6.671l7.098-10.375
					l-9.389-41.991c-3.832,3.242-6.853,5.76-6.853,5.76l6.135-8.967l-8.278-37.023l-1.535,60.81l7.063,33.783l-5.528,35.626
					l-3.686,22.112l-29.483-3.992l31.787,13.82l34.551-13.82l-4.493-20.096C2194.398,1427.987,2188.782,1432.667,2188.782,1432.667z
					"/>
			</g>
		</g>
	</g>
	<g id="plants">
		<polygon fill="#A57228" points="334,1747.231 320,1759.231 327,1771.231 341.5,1775.731 370.5,1771.231 378,1761.481 
			360.5,1747.231 349,1743.231 		"/>
		<polygon fill="#A57228" points="1589.96,1659.119 1575.96,1671.119 1582.96,1683.119 1597.46,1687.619 1626.46,1683.119 
			1633.96,1673.369 1616.46,1659.119 1604.96,1655.119 		"/>
		<polygon fill="#A57228" points="2155.662,1528.424 2141.662,1540.424 2148.662,1552.424 2163.162,1556.924 2192.162,1552.424 
			2199.662,1542.674 2182.162,1528.424 2170.662,1524.424 		"/>
		<polygon fill="#455E00" points="1270.068,1546.025 1248.136,1564.824 1259.102,1583.624 1281.818,1590.674 1327.25,1583.624 
			1339,1568.35 1311.584,1546.025 1293.567,1539.759 		"/>
		<polygon fill="#455E00" points="1772.513,1512.247 1758.548,1524.217 1765.53,1536.186 1779.993,1540.674 1808.919,1536.186 
			1816.399,1526.461 1798.944,1512.247 1787.474,1508.258 		"/>
		<polygon fill="#455E00" points="602.146,1597.828 571.25,1624.311 586.698,1650.793 618.698,1660.725 682.698,1650.793 
			699.25,1629.276 660.629,1597.828 635.25,1589 		"/>
		<polygon fill="#4D7B21" points="207.58,1356.928 192.132,1370.169 199.856,1383.41 215.856,1388.375 247.856,1383.41 
			256.132,1372.651 236.821,1356.928 224.132,1352.514 		"/>
		<polygon fill="#4D7B21" points="1288.735,1388.43 1277.016,1398.475 1282.876,1408.52 1295.014,1412.287 1319.289,1408.52 
			1325.567,1400.358 1310.919,1388.43 1301.292,1385.081 		"/>
		<polygon fill="#455E00" points="1812.144,1238.885 1803.96,1245.899 1808.052,1252.913 1816.527,1255.544 1833.479,1252.913 
			1837.863,1247.215 1827.634,1238.885 1820.911,1236.547 		"/>
		<polygon fill="#455E00" points="1643.945,1275.378 1635.762,1282.393 1639.854,1289.407 1648.33,1292.037 1665.281,1289.407 
			1669.665,1283.708 1659.436,1275.378 1652.714,1273.04 		"/>
		<polygon fill="#455E00" points="2206.945,1340.234 2198.762,1347.249 2202.854,1354.263 2211.33,1356.894 2228.281,1354.263 
			2232.665,1348.563 2222.436,1340.234 2215.714,1337.896 		"/>
		<polygon fill="#4D7B21" points="932.624,1344.46 917.176,1357.701 924.899,1370.943 940.9,1375.908 972.9,1370.943 
			981.176,1360.185 961.865,1344.46 949.176,1340.047 		"/>
		<polygon fill="#4D7B21" points="148.93,1170.695 138.143,1179.941 143.536,1189.188 154.708,1192.655 177.054,1189.188 
			182.833,1181.676 169.349,1170.695 160.488,1167.613 		"/>
		<polygon fill="#455E00" points="1773.98,1666.129 1745.98,1690.129 1759.98,1714.129 1788.98,1723.129 1846.98,1714.129 
			1861.98,1694.629 1826.98,1666.129 1803.98,1658.129 		"/>
		<polygon fill="#455E00" points="1167.896,1734.829 1137,1761.313 1152.448,1787.795 1184.448,1797.727 1248.448,1787.795 
			1265,1766.278 1226.379,1734.829 1201,1726.002 		"/>
	</g>
	<g id="pine_trees_5_">
		<g>
			<ellipse opacity="0.5" fill="#2D2D2D" cx="2063.461" cy="1812.273" rx="46.498" ry="11.272"/>
			<g>
				<polygon fill="#302804" points="2051.961,1749.937 2044.961,1810.383 2081.961,1810.383 2072.961,1749.937 				"/>
				<path fill="#1F422E" d="M2127.207,1705.422c-12.222,10.463-24.412,20.621-24.412,20.621l21.875-31.971l-18.003-80.51
					c-9.39,7.967-17.206,14.48-17.206,14.48l15.408-22.52l-20.381-91.152c-8.316,7.039-14.875,12.504-14.875,12.504l13.318-19.464
					l-17.971-80.368l-32.639,145.968c7.104,8.392,12.639,15.032,12.639,15.032l-13.877-9.494l-19.064,85.263
					c10.801,12.596,21.608,25.565,21.608,25.565l-23.699-16.216l-16.968,75.882l69,30l75-30L2127.207,1705.422z"/>
				<path fill="#2B543C" d="M2102.795,1726.043l21.875-31.971l-18.003-80.51c-9.39,7.967-17.206,14.48-17.206,14.48l15.408-22.52
					l-20.381-91.152c-8.316,7.039-14.875,12.504-14.875,12.504l13.318-19.464l-17.971-80.368l-3.333,132l15.333,73.334l-12,77.333
					l-8,48l-64-8.667l69,30l75-30l-9.754-43.621C2114.985,1715.885,2102.795,1726.043,2102.795,1726.043z"/>
			</g>
		</g>
		<g>
			<ellipse opacity="0.5" fill="#2D2D2D" cx="1920.89" cy="1783.541" rx="46.498" ry="11.273"/>
			<g>
				<polygon fill="#302804" points="1913.581,1743.231 1909.132,1781.651 1932.649,1781.651 1926.929,1743.231 				"/>
				<path fill="#1F422E" d="M1961.407,1714.938c-7.769,6.649-15.517,13.106-15.517,13.106l13.904-20.32l-11.442-51.173
					c-5.968,5.063-10.937,9.204-10.937,9.204l9.794-14.313l-12.955-57.937c-5.286,4.475-9.454,7.947-9.454,7.947l8.465-12.371
					L1921.844,1538l-20.745,92.777c4.516,5.334,8.033,9.555,8.033,9.555l-8.82-6.035l-12.118,54.193
					c6.865,8.006,13.735,16.249,13.735,16.249l-15.063-10.306l-10.785,48.23l43.857,19.068l47.67-19.068L1961.407,1714.938z"/>
				<path fill="#2B543C" d="M1945.891,1728.045l13.904-20.32l-11.442-51.173c-5.968,5.063-10.937,9.204-10.937,9.204l9.794-14.313
					l-12.955-57.937c-5.286,4.475-9.454,7.947-9.454,7.947l8.465-12.371L1921.844,1538l-2.119,83.899l9.746,46.61l-7.627,49.153
					l-5.085,30.509l-40.679-5.508l43.857,19.068l47.67-19.068l-6.2-27.727C1953.639,1721.588,1945.891,1728.045,1945.891,1728.045z"
					/>
			</g>
		</g>
		<g>
			<ellipse opacity="0.5" fill="#2D2D2D" cx="1680.618" cy="1810.9" rx="33.701" ry="8.17"/>
			<g>
				<polygon fill="#302804" points="1675.32,1781.684 1672.096,1809.53 1689.141,1809.53 1684.994,1781.684 				"/>
				<path fill="#1F422E" d="M1709.984,1761.177c-5.63,4.819-11.246,9.5-11.246,9.5l10.077-14.729l-8.293-37.09
					c-4.325,3.671-7.927,6.672-7.927,6.672l7.099-10.375l-9.39-41.992c-3.831,3.243-6.853,5.761-6.853,5.761l6.136-8.967
					l-8.279-37.023l-15.035,67.244c3.272,3.865,5.822,6.925,5.822,6.925l-6.393-4.374l-8.783,39.279
					c4.976,5.803,9.955,11.777,9.955,11.777l-10.918-7.471l-7.816,34.958l31.786,13.82l34.552-13.82L1709.984,1761.177z"/>
				<path fill="#2B543C" d="M1698.738,1770.677l10.077-14.729l-8.293-37.09c-4.325,3.671-7.927,6.672-7.927,6.672l7.099-10.375
					l-9.39-41.992c-3.831,3.243-6.853,5.761-6.853,5.761l6.136-8.967l-8.279-37.023l-1.535,60.81l7.063,33.783l-5.528,35.626
					l-3.685,22.112l-29.483-3.992l31.786,13.82l34.552-13.82l-4.494-20.096C1704.354,1765.996,1698.738,1770.677,1698.738,1770.677z
					"/>
			</g>
		</g>
	</g>
</g>
</svg>
